<svg width="70" height="70" viewBox="0 0 70 70" fill="none" xmlns="http://www.w3.org/2000/svg">
<path fill-rule="evenodd" clip-rule="evenodd" d="M35 63C50.464 63 63 50.464 63 35C63 19.536 50.464 7 35 7C19.536 7 7 19.536 7 35C7 50.464 19.536 63 35 63ZM50.4142 32.5858L37.6863 19.8579C36.9052 19.0768 35.6389 19.0768 34.8579 19.8579C34.0768 20.6389 34.0768 21.9052 34.8579 22.6863L44.1716 32H21V36H44.1716L34.8579 45.3137C34.0768 46.0948 34.0768 47.3611 34.8579 48.1421C35.6389 48.9232 36.9052 48.9232 37.6863 48.1421L50.4142 35.4142C51.1953 34.6332 51.1953 33.3668 50.4142 32.5858Z" fill="white"/>
</svg>
