<svg width="70" height="70" viewBox="0 0 70 70" fill="none" xmlns="http://www.w3.org/2000/svg">
<path fill-rule="evenodd" clip-rule="evenodd" d="M35 63C50.464 63 63 50.464 63 35C63 19.536 50.464 7 35 7C19.536 7 7 19.536 7 35C7 50.464 19.536 63 35 63ZM36.4142 49.4142L49.1421 36.6863C49.9232 35.9052 49.9232 34.6389 49.1421 33.8579C48.3611 33.0768 47.0948 33.0768 46.3137 33.8579L37 43.1716V20H33V43.1716L23.6863 33.8579C22.9052 33.0768 21.6389 33.0768 20.8579 33.8579C20.0768 34.6389 20.0768 35.9052 20.8579 36.6863L33.5858 49.4142C34.3668 50.1953 35.6332 50.1953 36.4142 49.4142Z" fill="white"/>
</svg>
