<svg width="70" height="70" viewBox="0 0 70 70" fill="none" xmlns="http://www.w3.org/2000/svg">
<path fill-rule="evenodd" clip-rule="evenodd" d="M35 63C50.464 63 63 50.464 63 35C63 19.536 50.464 7 35 7C19.536 7 7 19.536 7 35C7 50.464 19.536 63 35 63ZM19.5858 35.4142L32.3137 48.1421C33.0948 48.9232 34.3611 48.9232 35.1421 48.1421C35.9232 47.3611 35.9232 46.0948 35.1421 45.3137L25.8284 36H49V32H25.8284L35.1421 22.6863C35.9232 21.9052 35.9232 20.6389 35.1421 19.8579C34.3611 19.0768 33.0948 19.0768 32.3137 19.8579L19.5858 32.5858C18.8047 33.3668 18.8047 34.6332 19.5858 35.4142Z" fill="white"/>
</svg>
