<svg width="70" height="70" viewBox="0 0 70 70" fill="none" xmlns="http://www.w3.org/2000/svg">
<path fill-rule="evenodd" clip-rule="evenodd" d="M35 63C50.464 63 63 50.464 63 35C63 19.536 50.464 7 35 7C19.536 7 7 19.536 7 35C7 50.464 19.536 63 35 63ZM33.5858 19.5858L20.8579 32.3137C20.0768 33.0948 20.0768 34.3611 20.8579 35.1421C21.6389 35.9232 22.9052 35.9232 23.6863 35.1421L33 25.8284V50H37V25.8284L46.3137 35.1421C47.0948 35.9232 48.3611 35.9232 49.1421 35.1421C49.9232 34.3611 49.9232 33.0948 49.1421 32.3137L36.4142 19.5858C35.6332 18.8047 34.3668 18.8047 33.5858 19.5858Z" fill="white"/>
</svg>
